<?xml version="1.0" encoding="utf-8"?>
<!-- Generator: Adobe Illustrator 18.1.1, SVG Export Plug-In . SVG Version: 6.00 Build 0)  -->
<svg version="1.1" id="Calque_1" xmlns="http://www.w3.org/2000/svg" xmlns:xlink="http://www.w3.org/1999/xlink" x="0px" y="0px"
	 viewBox="0 0 458.4 411" enable-background="new 0 0 458.4 411" xml:space="preserve">
<path fill="none" stroke="#FFFFFF" stroke-width="3" stroke-linecap="round" stroke-linejoin="round" stroke-miterlimit="10" d="
	M448.6,79.4c0,10.7,0,261.4,0,271.1c0,26.7,0,46.9,0,46.9c0,2.7-2.1,4.8-4.8,4.8c0,0-280.8,0-386.7,0 M45.3,402.2
	c-19.1,0-30.6,0-30.6,0c-2.7,0-4.8-2.1-4.8-4.8V13.7c0-2.7,2.1-4.8,4.8-4.8h429c2.7,0,4.8,2.1,4.8,4.8c0,0,0,22.8,0,51.9"/>
</svg>
